<svg width="1280" height="720" xmlns="http://www.w3.org/2000/svg" xmlns:xlink="http://www.w3.org/1999/xlink" overflow="hidden"><defs><clipPath id="clip0"><rect x="0" y="0" width="1280" height="720"/></clipPath><linearGradient x1="150.482" y1="55.6019" x2="211.518" y2="205.398" gradientUnits="userSpaceOnUse" spreadMethod="reflect" id="stroke1"><stop offset="0" stop-color="#000000" stop-opacity="0"/><stop offset="0.65" stop-color="#000000" stop-opacity="0"/><stop offset="1" stop-color="#FFFFFF" stop-opacity="0.34902"/></linearGradient><linearGradient x1="210.856" y1="204.446" x2="151.144" y2="56.5546" gradientUnits="userSpaceOnUse" spreadMethod="reflect" id="fill2"><stop offset="0"/><stop offset="0.21"/><stop offset="1" stop-color="#400000" stop-opacity="0.988235"/></linearGradient><linearGradient x1="465.482" y1="55.6019" x2="526.518" y2="205.398" gradientUnits="userSpaceOnUse" spreadMethod="reflect" id="stroke3"><stop offset="0" stop-color="#000000" stop-opacity="0"/><stop offset="0.65" stop-color="#000000" stop-opacity="0"/><stop offset="1" stop-color="#FFFFFF" stop-opacity="0.34902"/></linearGradient><linearGradient x1="525.856" y1="204.446" x2="466.144" y2="56.5546" gradientUnits="userSpaceOnUse" spreadMethod="reflect" id="fill4"><stop offset="0"/><stop offset="0.21"/><stop offset="1" stop-color="#400000" stop-opacity="0.988235"/></linearGradient><linearGradient x1="780.88" y1="55.702" x2="842.12" y2="205.298" gradientUnits="userSpaceOnUse" spreadMethod="reflect" id="stroke5"><stop offset="0" stop-color="#000000" stop-opacity="0"/><stop offset="0.65" stop-color="#000000" stop-opacity="0"/><stop offset="1" stop-color="#FFFFFF" stop-opacity="0.34902"/></linearGradient><linearGradient x1="841.457" y1="204.348" x2="781.543" y2="56.6524" gradientUnits="userSpaceOnUse" spreadMethod="reflect" id="fill6"><stop offset="0"/><stop offset="0.21"/><stop offset="1" stop-color="#400000" stop-opacity="0.988235"/></linearGradient><linearGradient x1="1096.48" y1="55.6019" x2="1157.52" y2="205.398" gradientUnits="userSpaceOnUse" spreadMethod="reflect" id="stroke7"><stop offset="0" stop-color="#000000" stop-opacity="0"/><stop offset="0.65" stop-color="#000000" stop-opacity="0"/><stop offset="1" stop-color="#FFFFFF" stop-opacity="0.34902"/></linearGradient><linearGradient x1="1156.86" y1="204.446" x2="1097.14" y2="56.5546" gradientUnits="userSpaceOnUse" spreadMethod="reflect" id="fill8"><stop offset="0"/><stop offset="0.21"/><stop offset="1" stop-color="#400000" stop-opacity="0.988235"/></linearGradient><linearGradient x1="208.334" y1="127.268" x2="412.666" y2="516.732" gradientUnits="userSpaceOnUse" spreadMethod="reflect" id="stroke9"><stop offset="0" stop-color="#000000" stop-opacity="0"/><stop offset="0.65" stop-color="#000000" stop-opacity="0"/><stop offset="1" stop-color="#FFFFFF" stop-opacity="0.34902"/></linearGradient><linearGradient x1="411.969" y1="515.901" x2="209.031" y2="128.099" gradientUnits="userSpaceOnUse" spreadMethod="reflect" id="fill10"><stop offset="0"/><stop offset="0.21"/><stop offset="1" stop-color="#400000" stop-opacity="0.988235"/></linearGradient><linearGradient x1="816.878" y1="103.401" x2="978.122" y2="540.599" gradientUnits="userSpaceOnUse" spreadMethod="reflect" id="stroke11"><stop offset="0" stop-color="#000000" stop-opacity="0"/><stop offset="0.65" stop-color="#000000" stop-opacity="0"/><stop offset="1" stop-color="#FFFFFF" stop-opacity="0.34902"/></linearGradient><linearGradient x1="667.75" y1="92.25" x2="1127.25" y2="551.75" gradientUnits="userSpaceOnUse" spreadMethod="reflect" id="fill12"><stop offset="0"/><stop offset="0.21"/><stop offset="1" stop-color="#400000" stop-opacity="0.988235"/></linearGradient><linearGradient x1="603.18" y1="343.543" x2="704.82" y2="818.457" gradientUnits="userSpaceOnUse" spreadMethod="reflect" id="stroke13"><stop offset="0" stop-color="#000000" stop-opacity="0"/><stop offset="0.65" stop-color="#000000" stop-opacity="0"/><stop offset="1" stop-color="#FFFFFF" stop-opacity="0.34902"/></linearGradient><linearGradient x1="302.5" y1="229.5" x2="1005.5" y2="932.5" gradientUnits="userSpaceOnUse" spreadMethod="reflect" id="fill14"><stop offset="0" stop-color="#100000"/><stop offset="0.27" stop-color="#100000"/><stop offset="0.5" stop-color="#2C0000"/><stop offset="1" stop-color="#400000" stop-opacity="0.988235"/></linearGradient></defs><g clip-path="url(#clip0)"><rect x="0" y="0" width="1280" height="720" fill="#FFFFFF" fill-opacity="0"/><path d="M74.5001 101.834C74.5001 93.9175 80.9175 87.5001 88.8338 87.5001L273.166 87.5001C281.083 87.5001 287.5 93.9175 287.5 101.834L287.5 159.166C287.5 167.083 281.083 173.5 273.166 173.5L88.8338 173.5C80.9175 173.5 74.5001 167.083 74.5001 159.166Z" stroke="url(#stroke1)" stroke-width="1.33333" stroke-miterlimit="8" fill="url(#fill2)" fill-rule="evenodd"/><path d="M389.5 101.834C389.5 93.9175 395.917 87.5001 403.834 87.5001L588.166 87.5001C596.083 87.5001 602.5 93.9175 602.5 101.834L602.5 159.166C602.5 167.083 596.083 173.5 588.166 173.5L403.834 173.5C395.917 173.5 389.5 167.083 389.5 159.166Z" stroke="url(#stroke3)" stroke-width="1.33333" stroke-miterlimit="8" fill="url(#fill4)" fill-rule="evenodd"/><path d="M705.5 101.834C705.5 93.9175 711.917 87.5001 719.834 87.5001L903.166 87.5001C911.083 87.5001 917.5 93.9175 917.5 101.834L917.5 159.166C917.5 167.083 911.083 173.5 903.166 173.5L719.834 173.5C711.917 173.5 705.5 167.083 705.5 159.166Z" stroke="url(#stroke5)" stroke-width="1.33333" stroke-miterlimit="8" fill="url(#fill6)" fill-rule="evenodd"/><path d="M1020.5 101.834C1020.5 93.9175 1026.92 87.5001 1034.83 87.5001L1219.17 87.5001C1227.08 87.5001 1233.5 93.9175 1233.5 101.834L1233.5 159.166C1233.5 167.083 1227.08 173.5 1219.17 173.5L1034.83 173.5C1026.92 173.5 1020.5 167.083 1020.5 159.166Z" stroke="url(#stroke7)" stroke-width="1.33333" stroke-miterlimit="8" fill="url(#fill8)" fill-rule="evenodd"/><path d="M74.5001 213.693C74.5001 205.302 81.3021 198.5 89.6929 198.5L531.307 198.5C539.698 198.5 546.5 205.302 546.5 213.693L546.5 430.307C546.5 438.698 539.698 445.5 531.307 445.5L89.6929 445.5C81.3021 445.5 74.5001 438.698 74.5001 430.307Z" stroke="url(#stroke9)" stroke-width="1.33333" stroke-miterlimit="8" fill="url(#fill10)" fill-rule="evenodd"/><path d="M561.5 213.693C561.5 205.302 568.302 198.5 576.693 198.5L1218.31 198.5C1226.7 198.5 1233.5 205.302 1233.5 213.693L1233.5 430.307C1233.5 438.698 1226.7 445.5 1218.31 445.5L576.693 445.5C568.302 445.5 561.5 438.698 561.5 430.307Z" stroke="url(#stroke11)" stroke-width="1.33333" stroke-miterlimit="8" fill="url(#fill12)" fill-rule="evenodd"/><path d="M74.5001 472.694C74.5001 464.302 81.3024 457.5 89.6936 457.5L1218.31 457.5C1226.7 457.5 1233.5 464.302 1233.5 472.694L1233.5 689.307C1233.5 697.698 1226.7 704.5 1218.31 704.5L89.6936 704.5C81.3024 704.5 74.5001 697.698 74.5001 689.307Z" stroke="url(#stroke13)" stroke-width="1.33333" stroke-miterlimit="8" fill="url(#fill14)" fill-rule="evenodd"/></g></svg>