<svg width="1280" height="720" xmlns="http://www.w3.org/2000/svg" xmlns:xlink="http://www.w3.org/1999/xlink" overflow="hidden"><defs><clipPath id="clip0"><rect x="0" y="0" width="1280" height="720"/></clipPath><linearGradient x1="124.809" y1="62.4001" x2="197.191" y2="198.6" gradientUnits="userSpaceOnUse" spreadMethod="reflect" id="stroke1"><stop offset="0" stop-color="#000000" stop-opacity="0"/><stop offset="0.65" stop-color="#000000" stop-opacity="0"/><stop offset="1" stop-color="#FFFFFF" stop-opacity="0.34902"/></linearGradient><linearGradient x1="196.494" y1="197.773" x2="125.506" y2="63.2269" gradientUnits="userSpaceOnUse" spreadMethod="reflect" id="fill2"><stop offset="0"/><stop offset="0.21"/><stop offset="1" stop-color="#400000" stop-opacity="0.988235"/></linearGradient><linearGradient x1="324.186" y1="62.5838" x2="396.814" y2="198.416" gradientUnits="userSpaceOnUse" spreadMethod="reflect" id="stroke3"><stop offset="0" stop-color="#000000" stop-opacity="0"/><stop offset="0.65" stop-color="#000000" stop-opacity="0"/><stop offset="1" stop-color="#FFFFFF" stop-opacity="0.34902"/></linearGradient><linearGradient x1="396.117" y1="197.592" x2="324.883" y2="63.4078" gradientUnits="userSpaceOnUse" spreadMethod="reflect" id="fill4"><stop offset="0"/><stop offset="0.21"/><stop offset="1" stop-color="#400000" stop-opacity="0.988235"/></linearGradient><linearGradient x1="523.809" y1="62.4001" x2="596.191" y2="198.6" gradientUnits="userSpaceOnUse" spreadMethod="reflect" id="stroke5"><stop offset="0" stop-color="#000000" stop-opacity="0"/><stop offset="0.65" stop-color="#000000" stop-opacity="0"/><stop offset="1" stop-color="#FFFFFF" stop-opacity="0.34902"/></linearGradient><linearGradient x1="595.494" y1="197.773" x2="524.506" y2="63.2269" gradientUnits="userSpaceOnUse" spreadMethod="reflect" id="fill6"><stop offset="0"/><stop offset="0.21"/><stop offset="1" stop-color="#400000" stop-opacity="0.988235"/></linearGradient><linearGradient x1="722.809" y1="62.4001" x2="795.191" y2="198.6" gradientUnits="userSpaceOnUse" spreadMethod="reflect" id="stroke7"><stop offset="0" stop-color="#000000" stop-opacity="0"/><stop offset="0.65" stop-color="#000000" stop-opacity="0"/><stop offset="1" stop-color="#FFFFFF" stop-opacity="0.34902"/></linearGradient><linearGradient x1="794.494" y1="197.773" x2="723.506" y2="63.2269" gradientUnits="userSpaceOnUse" spreadMethod="reflect" id="fill8"><stop offset="0"/><stop offset="0.21"/><stop offset="1" stop-color="#400000" stop-opacity="0.988235"/></linearGradient><linearGradient x1="922.186" y1="62.5838" x2="994.814" y2="198.416" gradientUnits="userSpaceOnUse" spreadMethod="reflect" id="stroke9"><stop offset="0" stop-color="#000000" stop-opacity="0"/><stop offset="0.65" stop-color="#000000" stop-opacity="0"/><stop offset="1" stop-color="#FFFFFF" stop-opacity="0.34902"/></linearGradient><linearGradient x1="994.117" y1="197.592" x2="922.883" y2="63.4078" gradientUnits="userSpaceOnUse" spreadMethod="reflect" id="fill10"><stop offset="0"/><stop offset="0.21"/><stop offset="1" stop-color="#400000" stop-opacity="0.988235"/></linearGradient><linearGradient x1="1121.19" y1="62.5838" x2="1193.81" y2="198.416" gradientUnits="userSpaceOnUse" spreadMethod="reflect" id="stroke11"><stop offset="0" stop-color="#000000" stop-opacity="0"/><stop offset="0.65" stop-color="#000000" stop-opacity="0"/><stop offset="1" stop-color="#FFFFFF" stop-opacity="0.34902"/></linearGradient><linearGradient x1="1193.12" y1="197.592" x2="1121.88" y2="63.4078" gradientUnits="userSpaceOnUse" spreadMethod="reflect" id="fill12"><stop offset="0"/><stop offset="0.21"/><stop offset="1" stop-color="#400000" stop-opacity="0.988235"/></linearGradient><linearGradient x1="619.673" y1="386.533" x2="698.327" y2="806.467" gradientUnits="userSpaceOnUse" spreadMethod="reflect" id="stroke13"><stop offset="0" stop-color="#000000" stop-opacity="0"/><stop offset="0.65" stop-color="#000000" stop-opacity="0"/><stop offset="1" stop-color="#FFFFFF" stop-opacity="0.34902"/></linearGradient><linearGradient x1="315.25" y1="252.75" x2="1002.75" y2="940.25" gradientUnits="userSpaceOnUse" spreadMethod="reflect" id="fill14"><stop offset="0" stop-color="#100000"/><stop offset="0.27" stop-color="#100000"/><stop offset="0.5" stop-color="#2C0000"/><stop offset="1" stop-color="#400000" stop-opacity="0.988235"/></linearGradient><linearGradient x1="871.287" y1="124.805" x2="1057.71" y2="537.195" gradientUnits="userSpaceOnUse" spreadMethod="reflect" id="stroke15"><stop offset="0" stop-color="#000000" stop-opacity="0"/><stop offset="0.65" stop-color="#000000" stop-opacity="0"/><stop offset="1" stop-color="#FFFFFF" stop-opacity="0.34902"/></linearGradient><linearGradient x1="765.75" y1="132.25" x2="1163.25" y2="529.75" gradientUnits="userSpaceOnUse" spreadMethod="reflect" id="fill16"><stop offset="0" stop-color="#100000"/><stop offset="0.27" stop-color="#100000"/><stop offset="0.5" stop-color="#2C0000"/><stop offset="1" stop-color="#400000" stop-opacity="0.988235"/></linearGradient><linearGradient x1="260.899" y1="124.678" x2="447.101" y2="537.322" gradientUnits="userSpaceOnUse" spreadMethod="reflect" id="stroke17"><stop offset="0" stop-color="#000000" stop-opacity="0"/><stop offset="0.65" stop-color="#000000" stop-opacity="0"/><stop offset="1" stop-color="#FFFFFF" stop-opacity="0.34902"/></linearGradient><linearGradient x1="446.42" y1="536.419" x2="261.58" y2="125.581" gradientUnits="userSpaceOnUse" spreadMethod="reflect" id="fill18"><stop offset="0" stop-color="#100000"/><stop offset="0.27" stop-color="#100000"/><stop offset="0.5" stop-color="#2C0000"/><stop offset="1" stop-color="#400000" stop-opacity="0.988235"/></linearGradient></defs><g clip-path="url(#clip0)"><rect x="0" y="0" width="1280" height="720" fill="#FFFFFF" fill-opacity="0"/><path d="M79.5001 101.834C79.5001 93.9174 85.9174 87.5001 93.8337 87.5001L228.166 87.5001C236.083 87.5001 242.5 93.9174 242.5 101.834L242.5 159.166C242.5 167.083 236.083 173.5 228.166 173.5L93.8337 173.5C85.9174 173.5 79.5001 167.083 79.5001 159.166Z" stroke="url(#stroke1)" stroke-width="1.33333" stroke-miterlimit="8" fill="url(#fill2)" fill-rule="evenodd"/><path d="M279.5 101.834C279.5 93.9174 285.917 87.5001 293.834 87.5001L427.167 87.5001C435.083 87.5001 441.5 93.9174 441.5 101.834L441.5 159.166C441.5 167.083 435.083 173.5 427.167 173.5L293.834 173.5C285.917 173.5 279.5 167.083 279.5 159.166Z" stroke="url(#stroke3)" stroke-width="1.33333" stroke-miterlimit="8" fill="url(#fill4)" fill-rule="evenodd"/><path d="M478.5 101.834C478.5 93.9174 484.917 87.5001 492.834 87.5001L627.166 87.5001C635.083 87.5001 641.5 93.9174 641.5 101.834L641.5 159.166C641.5 167.083 635.083 173.5 627.166 173.5L492.834 173.5C484.917 173.5 478.5 167.083 478.5 159.166Z" stroke="url(#stroke5)" stroke-width="1.33333" stroke-miterlimit="8" fill="url(#fill6)" fill-rule="evenodd"/><path d="M677.5 101.834C677.5 93.9174 683.917 87.5001 691.834 87.5001L826.166 87.5001C834.083 87.5001 840.5 93.9174 840.5 101.834L840.5 159.166C840.5 167.083 834.083 173.5 826.166 173.5L691.834 173.5C683.917 173.5 677.5 167.083 677.5 159.166Z" stroke="url(#stroke7)" stroke-width="1.33333" stroke-miterlimit="8" fill="url(#fill8)" fill-rule="evenodd"/><path d="M877.5 101.834C877.5 93.9174 883.917 87.5001 891.834 87.5001L1025.17 87.5001C1033.08 87.5001 1039.5 93.9174 1039.5 101.834L1039.5 159.166C1039.5 167.083 1033.08 173.5 1025.17 173.5L891.834 173.5C883.917 173.5 877.5 167.083 877.5 159.166Z" stroke="url(#stroke9)" stroke-width="1.33333" stroke-miterlimit="8" fill="url(#fill10)" fill-rule="evenodd"/><path d="M1076.5 101.834C1076.5 93.9174 1082.92 87.5001 1090.83 87.5001L1224.17 87.5001C1232.08 87.5001 1238.5 93.9174 1238.5 101.834L1238.5 159.166C1238.5 167.083 1232.08 173.5 1224.17 173.5L1090.83 173.5C1082.92 173.5 1076.5 167.083 1076.5 159.166Z" stroke="url(#stroke11)" stroke-width="1.33333" stroke-miterlimit="8" fill="url(#fill12)" fill-rule="evenodd"/><path d="M79.5001 501.786C79.5001 494.448 85.4484 488.5 92.786 488.5L1225.21 488.5C1232.55 488.5 1238.5 494.448 1238.5 501.786L1238.5 691.214C1238.5 698.552 1232.55 704.5 1225.21 704.5L92.786 704.5C85.4484 704.5 79.5001 698.552 79.5001 691.214Z" stroke="url(#stroke13)" stroke-width="1.33333" stroke-miterlimit="8" fill="url(#fill14)" fill-rule="evenodd"/><path d="M690.5 222.693C690.5 214.302 697.302 207.5 705.693 207.5L1223.31 207.5C1231.7 207.5 1238.5 214.302 1238.5 222.693L1238.5 439.307C1238.5 447.698 1231.7 454.5 1223.31 454.5L705.693 454.5C697.302 454.5 690.5 447.698 690.5 439.307Z" stroke="url(#stroke15)" stroke-width="1.33333" stroke-miterlimit="8" fill="url(#fill16)" fill-rule="evenodd"/><path d="M79.5001 222.693C79.5001 214.302 86.3022 207.5 94.693 207.5L613.307 207.5C621.698 207.5 628.5 214.302 628.5 222.693L628.5 439.307C628.5 447.698 621.698 454.5 613.307 454.5L94.693 454.5C86.3022 454.5 79.5001 447.698 79.5001 439.307Z" stroke="url(#stroke17)" stroke-width="1.33333" stroke-miterlimit="8" fill="url(#fill18)" fill-rule="evenodd"/></g></svg>